<svg xmlns="http://www.w3.org/2000/svg" width="117" height="56" fill="none">
    <path fill="#011689" d="M0 0h55.84v55.84H0z" />
    <path fill="#fff"
        d="M36.81 40.597c-.54.138-.672.355-.578.488.096.127.578.03.83-.087.256-.12.318-.263.231-.395-.07-.105-.4-.026-.483-.006Zm-4.283-25.19c.271.022.25.015.359.034.063-.09.54-.785.582-.93.049-.14-.065-.248-.174-.254-.107-.006-.321.006-.466.139-.155.14-.251.768-.301 1.01Zm8.19 8.498c-.582-.213-1.18-.095-1.756.134l-.055.122c-.11.238-.263.42-.43.564.3.216.99.428 1.735.404.749-.017 1.398-.55 1.398-.55-.15-.214-.304-.46-.892-.674Zm-1.047 3.27c-.227-.4-.884-.474-1.438-.915l-.036.116-.125.03a2.366 2.366 0 0 1-1.12.006c.038.09.068.224.082.295.383.47.925.8 1.644.884.716.08.993-.416.993-.416Zm-1.367-3.603c.365.12.697.18 1.6-.05.96-.25 1.097-.974 1.097-.974-.421-.271-.963-.268-1.238-.163-.276.1-.902.1-1.168.04a1.959 1.959 0 0 1-.627 1.05c.126.025.236.06.336.097Zm.772 11.51c.571-.515.932-1.043.596-1.399-.334-.357-.9-.047-1.474.467-.572.514-.932 1.041-.599 1.396.31.332.905.05 1.477-.464Zm-1.445-1.436c.72-1.248-.148-2.92-.874-4.084a2.508 2.508 0 0 1-.27-.12c.254.896.738 1.961.539 2.782-.633-.737-.82-2.946-.82-2.946a3.108 3.108 0 0 1-.365-.275c0 .078-.004.163-.01.246.088 1.331.199 2.699.621 3.381.416.67 1.18 1.016 1.18 1.016Zm-1.547-4.723c.412.321.967.627 1.579.536 0 0 .141-.45-1.078-1.554a2.093 2.093 0 0 1-.957-.367c-.05.141-.133.33-.072.6.06.272.25.569.528.785Zm4.417-7.29c.524-.466.974-1.616.974-1.616-.482.06-1.42.472-1.988.783-.522.288-1.253.89-1.563 1.113.366.028.58.157.599.168l.124.079c.932.134 1.312-.046 1.854-.526Zm-2.15 7.315-.028-.003a1.753 1.753 0 0 1-.623-.097c.055.094.097.18.125.254 1.998 1.824 1.826 2.724 1.826 2.724-.681-.388-1.436-1.5-1.817-2.177l-.138.02a1.738 1.738 0 0 1-.495.007c.26.24.64.918 1.261 1.992.616 1.077 2.119 1.536 2.119 1.536.154-1.824-1.465-3.507-2.23-4.256Zm-.25-1.295c-.49-.32-.72-.382-1.054-.5-.049.4-.245.652-.261.673.144.166.66 1.03 1.741.887 0 0 .288-.59-.426-1.06Zm-2.734-6c-.383.256-.805.787-.484 1.534.32.748.926 1.808.563 2.222-.361.414-1.648.629-2.696.218 0 0-.219.646-.6 1.06 0 0 .178.357.783.178 0 0-.221.53.08 1.102 0 0 .704-.12 1.004-.748 0 0 .282.489.847.668 0 0 .464-.234.362-1.143 0 0 .34.81 1.388.945 0 0 .603-.745-.182-1.75 0 0 .563.493 1.589.256 0 0 .16-.51-.767-1.218 0 0 1.05-.04 1.453-.905 0 0-.445-.533-1.529-.413 0 0 1.004-.217 1.225-1.396 0 0-.724-.453-1.869.274 0 0 .2-.372.682-.745.483-.376 1.068-1.417.864-2.95-.381.824-1.008 1.67-2.713 2.811Zm-.013-8.035c.23.06.28.044.39.033a.495.495 0 0 0-.015-.225s-.545-.52-1.004-.609a.65.65 0 0 0-.558.136s.163-.015.408.18c.245.193.548.428.779.485Zm-.985 1.54c-.01.143-.113.293-.233.415 0 0 .669-.154.749-.559.074-.36-.082-.613-.192-.813-.1-.19-.409-.627-.486-.81-.07-.166-.109-.305-.084-.397-.204.201-.377.413-.373.6.002.189.23.669.348.851.12.183.293.422.271.713Zm1.301-.666c-.18.346-.265.918-.114 1.313.12.32.216.775.224.918.25-.365.33-.755.278-1.121-.031-.215-.058-.569.079-.84.113-.226.352-.63.319-1.031-.199-.122-.546-.236-.546-.236.033.348-.065.662-.24.997Zm-2.484 2.434s.44-.324.546-.598c.108-.271.136-.461-.305-.329a2.604 2.604 0 0 1-.24.927Zm7.007 2.585c.52-.892.245-2.023.245-2.023-1.033.27-1.561 1.137-1.71 1.385-.147.247-.394 1.204-.504 1.59-.134.473-.313.876-.544 1.166 1.146-.534 2.063-1.345 2.513-2.118Zm-3.916-3.938c.008.076.014.152.017.232.202-.342.79.01.79.01-.37-.579-.55-.642-.818-.743-.021.14-.016.304.01.5Zm5.534 4.18-.305.867a97.894 97.894 0 0 1 2.453-1.85c.476-.351 1.189-.852 1.9-1.086 0 0-.654.831-1.182 1.239-.607.471-1.226.879-1.738 1.151-.451.243-.682.38-1.599.814-.063.112-.253.375-.327.478 2.52-.41 5.292-2.275 6.148-3.43.86-1.155.615-2.879.615-2.879-.833.162-2.638 1.686-3.105 2.145-.468.457-1.88 1.801-2.86 2.55Zm-2.037.665c.196-.096.421-.199.648-.292l.21-.085c1.862-.966 3.707-2.966 4.454-4.356.745-1.391.438-3.006.24-3.87-.846.7-2.062 2.08-2.593 2.83-.652.92-1.487 2.223-2.005 3.284v.031c.004.11.007.23.002.357l-.022.277c.611-.761 1.343-1.678 2.039-2.527.478-.58.884-.931 1.331-1.214-.378 1.075-1.053 1.934-1.535 2.362-.477.426-1.17 1.147-1.847 1.589l-.067.218a2.387 2.387 0 0 1-.245.597c-.159.272-.364.54-.61.8Zm9.684-.67c-1.974-.051-3.57.42-4.801.79-1.439.43-3.634 1.232-4.401 1.567.288.009.603.092.87.265 1.071-.4 1.57-.572 2.544-.837.767-.211 1.335-.253 1.816-.298 0 0-.676.437-1.79.784-1.105.345-1.58.404-2.477.571-.005.032-.139.657-.88 1.002 1.593-.68 4.734-1.073 6.42-1.76 2.282-.928 2.7-2.083 2.7-2.083ZM34.993 30.49s.402-.431.518-.786a2.01 2.01 0 0 0 .016-1.251 1.797 1.797 0 0 0-.33-.59.816.816 0 0 1-.233.217l-.082.04-.088-.028a1.369 1.369 0 0 1-.21-.083c-.09.243-.124.36-.148.566-.03.274-.084.707.019 1.059.13.43.39.693.538.856Zm5.952-4.03c-.34-.985-1.015-1.137-1.677-1.258a3.817 3.817 0 0 0-1.46-.02c.212.233.285.462.388.61.325.463.896.736 1.549.87.772.152 1.2-.201 1.2-.201ZM28.84 18.577c.23-.224.512-.558.619-.877 0 0-.458.007-.672.146-.277.178-.542.567-.642 1.033 0 0 .465-.078.695-.302Zm-1.787-.731c-.214-.139-.674-.146-.674-.146.108.32.391.653.622.877.228.224.691.302.691.302-.101-.466-.363-.855-.639-1.033Zm-5.524-.534a.178.178 0 0 1-.178-.18c0-.1.08-.18.178-.18.104 0 .187.08.187.18 0 .1-.083.18-.187.18Zm.112-.967c-.247-.058-.768-.116-.998.216-.232.33-.143.955.319 1.21 0 0 .704-.593 1.558-.003 0 0 .197-.126.643-.224 0 0-.262-.312-.556-.442-.265-.118-.81-.273-.966-.757Zm2.195 8.427c.27 0 .678-.215 1.18-.835.742-.913.911-2.145.911-2.145-.76 1.244-1.517 1.891-2.107 1.857-.523-.027-.765-.765-.765-.765-.264.208-.31.8-.17 1.177.135.38.544.711.951.711Zm-.037-6.536c-.228-.18-.539-.585-.539-.585-.407.093-.694.145-1.008.563-.29.387.108.982.108.982.29-.971 1.439-.96 1.439-.96Zm9.218 13.077c-.306 1.507.17 2.126.17 2.126.79-.926.856-1.89 1.036-3.32-.087.189-.2.387-.352.582-.208 1.443-.496 1.644-.496 1.644-.112-.613.07-1.225.07-1.225a1.562 1.562 0 0 1-.428.193Zm1.214-3.527c-.076-.066-.142-.13-.2-.188-.114.142-.502.616-.693 1.091-.146.404-.3.954-.376 1.268-.08.313-.31.97-.449 1.194 0 0 .615.076 1.07-.444.447-.51.597-1.021.67-1.547.052-.41.037-.982-.022-1.374Zm-.108-10.654c0-.1.084-.18.182-.18.1 0 .185.08.185.18 0 .1-.084.18-.185.18a.182.182 0 0 1-.182-.18Zm.751.64c.464-.256.555-.881.322-1.21-.23-.333-.751-.275-1-.217-.155.484-.702.64-.964.757-.296.13-.56.442-.56.442.446.098.646.224.646.224a1.286 1.286 0 0 1 1.556.003Zm-1.396 1.424s.399-.595.107-.983c-.312-.417-.599-.47-1.008-.562 0 0-.308.405-.536.585 0 0 1.148-.011 1.437.96Zm-.693 3.688s-.244.738-.766.765c-.588.034-1.347-.613-2.107-1.857 0 0 .168 1.232.91 2.145.5.62.91.835 1.179.835.406 0 .816-.331.954-.711.135-.378.093-.969-.17-1.177Zm-.21 12.952c.316-.196.64-.292.703-.311-.28-.18-.52-.297-.712-.373-.195-.077-.467-.145-.467-.145-.126.04-.35.06-.35.06.263.056.549.469.615.59.07.127.21.18.21.18Zm-.567.912c.112-.053.342-.255.265-.68-.084-.497-.82-.994-.82-.994a.716.716 0 0 1-.33-.072 1.92 1.92 0 0 0-.387.272c.223-.037.587.061.79.21.153.112.403.5.249.769-.155.266-.721.083-.721.083.332.672.843.467.954.412Zm1.01-.6c.166-.033.418.12.418.12 0-.127-.051-.252.094-.345.137-.086.695.017.93-.023.114-.02.158-.085.127-.15-.072-.165-.208-.317-.208-.317-.27.078-1.105.296-1.406.437-.184.085-.489.248-.544.398-.076.204.025.303.105.394.126-.362.264-.467.484-.513Zm2.22-5.594c.229 1.531-.143 1.807-.143 1.807-.371-.715-.249-1.725-.249-1.725-.091-.106-.28-.296-.39-.475.181 3.19.694 3.557.694 3.557.749-.684.526-2.87.46-3.701a3.968 3.968 0 0 1-.372.537Zm-3.562 9.427c-.88-.463-1.743-1.172-2.522-2.294a.808.808 0 0 0-.069-.11s-.292.07-.522-.03l.15.244c.837 1.248 1.762 2.03 2.71 2.537l.253-.347Zm-10.07-12.195c-.055.392-.076.964-.018 1.374.07.526.22 1.037.667 1.547.454.52 1.068.444 1.068.444-.14-.224-.368-.881-.445-1.194a15.235 15.235 0 0 0-.375-1.268c-.193-.474-.583-.949-.7-1.09-.052.056-.12.12-.198.187Zm2.523-1.847c.085-.237.027-.942.027-.942-.453.207-.994-.074-.994-.074.006.54.444 1.283.58 1.486.22-.163.313-.276.387-.47ZM21.25 35.75c-.031.065.01.13.128.15.233.04.791-.063.929.023.144.093.091.219.091.345 0 0 .256-.153.417-.12.224.047.359.152.486.514.081-.09.182-.19.104-.394-.053-.15-.358-.313-.54-.398-.3-.14-1.134-.36-1.408-.437 0 0-.136.152-.206.317Zm1.198 3.177 2.734 3.746.322-.479c-1.108-1.514-2.475-3.39-2.614-3.58l.43-.3-1.353-.508.023 1.444.458-.323Zm-1.195-10.917a1.24 1.24 0 0 1-.213.083l-.084.029-.084-.041c-.011-.007-.12-.068-.234-.217a1.753 1.753 0 0 0-.325.59c-.148.443-.106.878.014 1.25.114.355.516.787.516.787.145-.163.41-.425.538-.856.104-.352.049-.785.02-1.059-.02-.207-.057-.323-.148-.566Zm.128 2.15c-.108.18-.3.37-.393.476 0 0 .125 1.01-.246 1.725 0 0-.371-.276-.142-1.807a4.377 4.377 0 0 1-.372-.537c-.065.83-.29 3.017.46 3.701 0 0 .513-.367.693-3.557Zm10.3-5.163s-.058.705.03.942c.07.194.164.307.382.47.138-.203.579-.945.584-1.486 0 0-.542.281-.996.074ZM21.134 40.87c-.442.066-.87.088-1.285.069.007.067.007.155-.033.22 0 0 .084.095.084.2.418.014.855-.01 1.3-.077.74-.11 1.518-.257 2.3-.546l-.259-.355c-.716.252-1.43.388-2.107.489Zm-2.247.654a7.967 7.967 0 0 0-.38.454c-.027.05.017.129.098.118.078-.008.515-.051.765-.217.25-.168.417-.491.244-.607-.172-.117-.44-.061-.727.252Zm7.998 2.56c-.107-.143-.394-.536-.77-1.05l-.32.475 1.136 1.556.86-1.496-.304-.535c-.225.394-.466.816-.602 1.05Zm6.958-4.836.028-1.444-1.358.507.431.301-3.992 5.473-2.03-3.597-.25.375-1.806 2.668-.453-.294-.005 1.418 1.371-.531-.46-.297c.249-.37 1.23-1.815 1.556-2.301l2.031 3.539 4.482-6.14.455.323ZM17.112 28.8c-.016-.033-.026-.068-.034-.09a1.009 1.009 0 0 1-.043-.32c-1.702 1.776-2.689 2.08-2.689 2.08.632-1.247 2.191-2.02 2.73-2.319a1.01 1.01 0 0 1 .182-.359c-.022.007-.046.008-.07.01-.3.036-.539-.017-.72-.096-.71.503-1.675 1.266-2.43 2.1-.755.835-1.026 1.608-1.164 2.587 0 0 1.41-.049 2.302-1.256.89-1.209 1.335-1.76 1.936-2.337Zm-.939-1.286a.935.935 0 0 1-.132-.145s-1.558 1.346-3.203 1.93c0 0 .35-.625 1.003-1.078.792-.55 1.385-.734 2.078-1.048l.057-.103c.022-.035.04-.066.065-.095-.581.219-2.646.981-3.314 1.32-.67.339-1.636 1.107-2.162 2.67 0 0 1.394.121 2.544-.809 1.15-.933 2.491-2.23 3.064-2.642Zm2.636 13.627a.485.485 0 0 0-.41-.04c-.174.062-.807.426-.848.599-.044.171.044.255.143.294.097.037.215.073.303.084a.503.503 0 0 0 .395-.175c.08-.1.377-.447.417-.529.043-.075.065-.19 0-.233Zm12.162 2.39-.321-.478-.342.462c.092.132.161.241.209.313l-.46.297 1.374.531-.008-1.419-.452.295ZM18.353 40.42c-.004-.161-.15-.203-.283-.203-.132 0-.685.013-.98-.203a.452.452 0 0 1-.055-.046c-.304-.26-.477-.66-.477-1.1 0-.839.699-1.526 1.562-1.526.862 0 1.558.687 1.558 1.527 0 .113-.022.302-.022.302.071-.132.328-.715.38-.822a1.985 1.985 0 0 0-1.916-1.423c-.787 0-1.466.446-1.79 1.094.122-.77.515-1.464.792-1.719.333-.306.897-.405.897-.405-.37.06-.86-.164-1.406-.656-.52-.463-.784-.871-.8-1.21.031.479.016.747-.124 1.138-.187.53-.702 1.513-.517 2.62.1.608.55 1.513 1.306 2.253.16.166.219.412.239.537 0 0 1.111 0 1.374.026 0 0 .265-.026.262-.184Zm-.198.308c-.13-.02-.547-.009-.797.026-.273.045-.584.097-.618.245-.03.142.069.288.208.502.084.132.288.055.4.014.113-.04.756-.377.858-.488.103-.11.147-.267-.05-.3Zm24.958-12.432c-.667-.339-2.734-1.101-3.313-1.32.022.03.042.06.062.095l.06.103c.693.314 1.284.498 2.08 1.048.647.453.998 1.078.998 1.078-1.644-.584-3.2-1.93-3.2-1.93a1.214 1.214 0 0 1-.134.145c.57.412 1.913 1.709 3.062 2.642 1.151.93 2.542.809 2.542.809-.524-1.563-1.49-2.331-2.157-2.67Zm1.068-1.636c-.762-.227-2.467-.427-3.149-.562.025.048.047.098.069.153.564.143 1.303.394 1.978.668.62.257 1.212.664 1.212.664-1.197-.032-2.405-.495-3.307-.889a1.6 1.6 0 0 1-.714.214c.432.112 1.138.328 3.4 1.37 2.265 1.04 3.463.68 3.463.68-.817-1.526-2.195-2.069-2.952-2.297ZM32.17 13.943h.297v-.47h.373v-.253h-.373v-.402h-.297v.402h-.37v.252h.37v.47Zm9.577 10.804c-.01.01-.13.104-.319.216.817.071 2.554.15 3.45.597 0 0-1.654.214-3.833-.404-.222.1-.391.151-.68.181.157.1.308.226.442.397.797.226 2.154.47 4.397.628 2.242.156 3.437-.244 3.437-.244-.78-.467-2.025-.941-2.867-1.1-.845-.16-3.056-.141-4.027-.27Zm-26.179 2.161a1.585 1.585 0 0 1-.713-.214c-.902.394-2.11.857-3.307.89 0 0 .59-.408 1.211-.665a16.038 16.038 0 0 1 1.976-.668 3.38 3.38 0 0 1 .07-.153c-.682.134-2.384.335-3.146.563-.76.228-2.137.771-2.953 2.296 0 0 1.198.361 3.46-.679 2.261-1.042 2.971-1.258 3.402-1.37Zm23.802.799a1.37 1.37 0 0 1-.72.096.338.338 0 0 1-.07-.01c.094.123.15.245.183.36.537.299 2.1 1.07 2.73 2.319 0 0-.988-.305-2.692-2.08a.929.929 0 0 1-.074.41c.599.575 1.045 1.128 1.935 2.336.89 1.207 2.301 1.256 2.301 1.256-.135-.979-.407-1.752-1.163-2.586-.755-.835-1.719-1.598-2.43-2.101ZM37.44 41.1a.496.496 0 0 0-.414.041c-.061.042-.04.158 0 .233.047.082.34.43.422.529a.502.502 0 0 0 .392.175 1.45 1.45 0 0 0 .304-.084c.098-.04.185-.123.144-.294-.044-.173-.676-.537-.848-.6Zm-1.214.173c-.173.116-.007.439.243.607.25.166.684.209.765.217.079.01.127-.069.096-.118a8.57 8.57 0 0 0-.378-.454c-.29-.313-.558-.368-.726-.252Zm3.799-7.244c-.013.339-.282.746-.8 1.21-.548.492-1.037.715-1.406.656 0 0 .565.098.897.405.28.255.668.949.79 1.719a1.99 1.99 0 0 0-1.787-1.094 1.98 1.98 0 0 0-1.917 1.423c.05.107.31.69.38.822 0 0-.022-.189-.022-.302 0-.84.698-1.528 1.559-1.528.862 0 1.563.688 1.563 1.528 0 .44-.177.84-.48 1.099-.019.016-.033.03-.053.046-.295.216-.85.203-.98.203-.133 0-.278.042-.283.203-.004.158.258.184.258.184.266-.026 1.378-.026 1.378-.026.018-.125.079-.371.241-.537.753-.74 1.204-1.645 1.305-2.253.183-1.107-.333-2.09-.523-2.62-.138-.39-.151-.659-.12-1.138Zm-4.036 6.91c-.411.02-.843-.002-1.286-.068-.676-.101-1.39-.237-2.106-.49l-.258.354c.781.291 1.563.439 2.3.548.447.068.88.091 1.303.078 0-.106.08-.202.08-.202a.377.377 0 0 1-.033-.22Zm2.49-.186c-.247-.035-.664-.047-.797-.026-.195.032-.151.19-.052.3.105.11.748.447.861.487.11.041.313.118.402-.014.137-.214.235-.36.206-.502-.034-.148-.346-.2-.62-.245Zm7.356-18.072c-2.344.15-3.904.687-5.037 1.023.167.06.302.126.415.19 2.535-.704 4.34-.338 4.34-.338-.74.243-2.809.557-4.053.55.125.115.206.23.275.333 1.062-.01 2.517.232 4.308-.15 1.791-.38 3.356-1.458 3.356-1.458-.64-.163-1.884-.26-3.604-.15Zm-18.626-8.709c-.071-.51-.259-1.738-.462-1.89-.105-.077-.242-.069-.396-.022-.157.048-.323.15-.33.284-.01.225.253.897.641 1.805.23-.114.35-.14.547-.177Zm-16.574 12.39c2.242-.159 3.602-.403 4.4-.63a1.72 1.72 0 0 1 .44-.396c-.29-.03-.46-.08-.68-.18-2.18.617-3.833.403-3.833.403.895-.446 2.633-.526 3.449-.597a2.452 2.452 0 0 1-.32-.216c-.97.13-3.181.111-4.024.27-.843.16-2.088.634-2.869 1.102 0 0 1.197.4 3.437.243Zm16.741-12.409c.098-.011.2-.016.303-.02-.062-.49-.236-1.301-.335-1.62-.103-.322-.233-.553-.447-.61 0 0 .167.448.26.908.09.461.159.902.22 1.342Zm-.364 1.079s-.442.45-.872.55c0 0 .176-.452.872-.55Zm-.227.51c.285-.166.53-.542.584-.717-.241-.033-.854.033-1.23.296a1.82 1.82 0 0 0-.627.711s.672.05 1.273-.29Zm-3.413-1.6h.3v-.47h.37v-.253h-.37v-.402h-.3v.402h-.374v.252h.374v.47Zm5.458 1.09c.694.098.872.55.872.55-.433-.1-.872-.55-.872-.55Zm-.36-.207c.057.175.302.551.585.717.6.34 1.273.29 1.273.29a1.784 1.784 0 0 0-.626-.71c-.377-.264-.989-.33-1.231-.297Zm3.272.616c.11-.02.089-.012.363-.034-.053-.243-.15-.871-.303-1.011-.146-.133-.361-.145-.468-.14-.106.007-.22.115-.174.255.043.145.517.84.582.93Zm-3.974-3.872h.302v-.473h.371v-.251h-.37v-.4h-.303v.4h-.37v.25h.37v.474Zm1.41 2.58c.391-.908.65-1.58.64-1.804-.006-.135-.171-.237-.325-.285-.158-.047-.298-.055-.4.022-.202.152-.392 1.38-.462 1.89.2.037.32.063.547.177Zm-.714-.196c.06-.44.13-.88.22-1.342.093-.46.26-.909.26-.909-.217.058-.346.29-.446.61-.102.32-.273 1.132-.336 1.62.102.005.203.01.302.021Zm-4.729 1.454c.274.022.253.015.362.034.064-.09.538-.785.585-.93.043-.14-.07-.248-.178-.254-.106-.006-.323.006-.466.139-.152.14-.249.768-.302 1.01Zm-8.526 4.634.209.085c.228.093.453.196.65.292a4.357 4.357 0 0 1-.61-.799 2.43 2.43 0 0 1-.247-.597l-.064-.218c-.676-.442-1.373-1.163-1.85-1.59-.479-.427-1.159-1.286-1.533-2.36.447.282.852.633 1.33 1.213.697.849 1.426 1.766 2.038 2.527l-.021-.277c-.004-.127 0-.247.003-.357l-.002-.031c-.516-1.06-1.353-2.364-2.006-3.284-.53-.75-1.745-2.13-2.59-2.83-.197.864-.51 2.479.24 3.87.748 1.39 2.591 3.39 4.453 4.356Zm-.382 1.325a7.97 7.97 0 0 1-.327-.478c-.915-.434-1.148-.57-1.6-.814a13.124 13.124 0 0 1-1.737-1.151c-.528-.408-1.183-1.24-1.183-1.24.711.235 1.426.736 1.903 1.087.618.456 1.612 1.19 2.45 1.85l-.304-.868c-.979-.749-2.39-2.093-2.86-2.55-.467-.46-2.273-1.983-3.105-2.145 0 0-.241 1.723.615 2.879.857 1.155 3.628 3.02 6.148 3.43Zm-.761 3.073c.068-.102.149-.218.273-.333-1.243.007-3.31-.307-4.05-.55 0 0 1.803-.366 4.337.339.114-.065.25-.13.418-.191-1.137-.336-2.694-.873-5.04-1.023-1.72-.11-2.96-.013-3.603.15 0 0 1.567 1.078 3.356 1.458 1.792.381 3.246.14 4.309.15Zm4.094-2.81c-.231-.29-.412-.693-.544-1.166-.109-.386-.357-1.343-.503-1.59-.146-.248-.676-1.115-1.71-1.385 0 0-.275 1.131.245 2.023.447.773 1.368 1.584 2.512 2.118Zm-9.08.203c1.689.686 4.827 1.08 6.421 1.76-.741-.345-.875-.97-.881-1.002-.895-.168-1.373-.226-2.476-.571-1.113-.347-1.789-.784-1.789-.784.48.045 1.047.087 1.818.298.972.265 1.471.436 2.543.837.265-.173.583-.256.868-.265-.768-.335-2.96-1.137-4.4-1.568-1.23-.37-2.827-.84-4.801-.788 0 0 .417 1.155 2.697 2.083Zm13.871-6.391c.111-.02.09-.012.363-.034-.052-.243-.15-.871-.302-1.011-.144-.133-.36-.145-.465-.14-.11.007-.221.115-.176.255.042.145.518.84.58.93Zm-4.328 6.35c.48.374.684.746.684.746-1.147-.727-1.871-.274-1.871-.274.222 1.179 1.226 1.396 1.226 1.396-1.085-.12-1.527.413-1.527.413.4.864 1.447.905 1.447.905-.924.709-.761 1.218-.761 1.218 1.023.237 1.586-.255 1.586-.255-.784 1.004-.18 1.749-.18 1.749 1.044-.136 1.388-.945 1.388-.945-.103.91.36 1.143.36 1.143.563-.18.846-.668.846-.668.301.629 1.004.748 1.004.748.303-.573.083-1.102.083-1.102.604.18.785-.178.785-.178-.385-.414-.604-1.06-.604-1.06-1.047.411-2.336.196-2.699-.218-.357-.413.244-1.474.567-2.222.32-.747-.102-1.278-.481-1.534-1.711-1.141-2.335-1.987-2.717-2.811-.203 1.533.382 2.574.864 2.95Zm1.862-8.173c.228-.057.533-.292.78-.484.245-.196.406-.18.406-.18a.646.646 0 0 0-.555-.137c-.46.09-1.006.61-1.006.61a.444.444 0 0 0-.013.224c.111.01.16.027.388-.033Zm.663.582c-.107.201-.266.454-.195.814.083.405.752.559.752.559-.122-.122-.226-.272-.236-.415-.02-.291.155-.53.274-.713.118-.182.345-.662.348-.852.005-.186-.17-.398-.374-.599.026.092-.012.23-.083.397-.079.183-.387.62-.486.81Zm-1.6 1.605c0-.08.003-.156.015-.232.028-.197.03-.361.009-.5-.267.1-.448.163-.815.742 0 0 .586-.352.79-.01Zm.235-.203c-.052.365.025.756.277 1.12a4.23 4.23 0 0 1 .227-.917c.15-.395.063-.967-.119-1.313-.173-.335-.268-.649-.239-.997 0 0-.345.114-.546.236-.032.4.209.805.323 1.032.135.27.107.624.077.839Zm2.325.726c.108.274.547.598.547.598a2.587 2.587 0 0 1-.242-.927c-.44-.132-.415.057-.305.329ZM21.968 30.7a2.69 2.69 0 0 1-.35-.583c.18 1.43.242 2.395 1.033 3.32 0 0 .476-.618.17-2.125-.132-.036-.283-.1-.425-.193 0 0 .18.612.065 1.225 0 0-.282-.2-.493-1.644Zm2.183-11.827c.168.134.311.341.377.691.096.489.388 1.014.476 1.173l.036-.008c-.053-.335.16-1.033.218-1.134 0 0-.312-.19-.455-.386-.105-.146-.288-.39-.8-.7a2.947 2.947 0 0 0-.438.095s.39.111.586.27Zm5.561 17.188c.27.324.852 1.261 1.75 1.27 0 0-.133-.44-.531-.694-.4-.252-.908-.576-1.138-.966-.227-.389-.469-.57-.634-.642-.035.285-.176.548-.33.823 0 0 .517 2.329 2.384 2.51 0 0-.04-.483-.591-.852-.555-.366-1.38-.938-1.321-1.803 0 0 .148.03.412.354Zm-7.341-.597s.437-.291.916-.47c.312-.119.465-.437.796-.756-.372.132-1.213.263-1.562.364-.351.103-.606.278-.941.637 0 0 .515.142.79.225Zm2.74-16.292c.04-.496-.207-.787-.568-1.037-.284-.203-.877-.384-.997-.417.242.347.702.74.955.882.322.177.61.572.61.572Zm2.809-4.02a.227.227 0 0 0 .228-.225.226.226 0 0 0-.228-.224c-.128 0-.233.1-.233.224a.23.23 0 0 0 .233.226Zm3.372 1.306c.594.074 1.29.044 1.29.044-.038.215-.127.377-.284.477-.037-.468-1.006-.473-1.006-.473v-.048Zm-1.888 1.083c.625-.132.823-.473.93-.605 0 0-.082.327-.045.458 0 0 .275-.016.49-.278 0 0-.157.262-.189.484 0 0 .172.02.476-.16 0 0-.061.164-.072.353 0 0 .718-.226 1.069-.546 0 0 .005.22-.012.346 0 0 1.116-.11 1.2-1.705 0 0-.743.271-1.49.236-.746-.037-2.12-.051-2.567-.264 0 0 .074.275.43.432 0 0-.185 0-.37.157 0 0 .108.226.423.345 0 0-.567.577-1.176.537 0 0 .277.341.903.21Zm2.914-1.699c.418 0 .757-.058.757-.131 0-.077-.339-.134-.757-.134-.416 0-.756.057-.756.134 0 .073.34.131.756.131ZM32 26.86c-.008-.01-.015-.015-.019-.024l-.037.049a1.62 1.62 0 0 1-.459.309s-.332.615.07 1.358c.398.745.735 1.503.899 1.924 0 0 .214-.031.452-1.194.163-.788.367-.986.578-1.257-.233.114-.417.148-.435.152l-.158.026-.075-.14a1.52 1.52 0 0 1-.182-.738c0-.07.003-.138.01-.197-.372.008-.57-.175-.644-.268Zm.667-12.574c0-.171-.213-.222-.323-.222h-.06c-.11 0-.322.05-.322.222 0 .173.276.59.348.774h.007c.074-.184.35-.601.35-.774Zm-6.626 4.64c-.29-.326-.66-1.133-.66-1.133-.118-.012-.257-.047-.369-.075.007.103.003.312.003.312-.123-.03-.495-.14-.495-.14.441.302.578.413.79.626.376.384.587.862.587.862.161-.273.144-.451.144-.451Zm-.66 15.323c-.42.122-.515.59-.515.59.185.085.265.305.64.305.404 0 .867-.397 1.182-.934.223-.385.327-1.155.327-1.292-.322.573-1.115 1.18-1.633 1.331Zm2.078-9.703c.176.262.306.316.46.387.152-.071.28-.125.458-.387.135-.206.265-.585.192-.857-.092-.334-.275-.467-.388-.676-.09.083-.146.148-.258.21h-.005c-.113-.062-.17-.127-.263-.21-.114.21-.295.342-.39.676-.071.272.058.651.195.857Zm.456-1.623h.008c.208-.176.394-.438.454-.592.056-.154.071-.38-.067-.554-.166-.207-.374-.438-.387-.627h-.01c-.016.189-.222.42-.388.627-.138.174-.124.4-.063.554.057.154.244.416.453.592Zm-2.7 14.587c-.553.369-.588.852-.588.852 1.864-.181 2.38-2.51 2.38-2.51-.154-.275-.294-.538-.333-.822-.16.072-.402.252-.632.64-.23.391-.737.715-1.136.967-.398.253-.533.693-.533.693.903-.008 1.484-.945 1.748-1.269.266-.324.413-.354.413-.354.06.865-.766 1.437-1.319 1.803Zm6.076-19.375c-.357.25-.604.54-.566 1.037 0 0 .291-.395.61-.572.256-.141.716-.535.955-.882-.116.033-.71.214-.999.417Zm-.835-.342s-.372.807-.66 1.134c0 0-.017.178.144.45 0 0 .21-.477.585-.86.214-.214.35-.325.791-.626 0 0-.372.108-.494.139 0 0-.008-.21.005-.312-.112.028-.25.063-.37.075Zm-2.09-5.696c0-.243-.2-.44-.447-.44-.25 0-.45.197-.45.44 0 .309.393 1.015.442 1.344h.015c.05-.33.44-1.035.44-1.344Zm3.468 6.413c-.51.309-.697.553-.8.698-.141.197-.452.387-.452.387.056.101.271.8.217 1.134l.033.008c.088-.16.383-.684.477-1.173.065-.35.212-.557.378-.69.194-.159.585-.27.585-.27a2.897 2.897 0 0 0-.438-.094Zm-1.316 2.766c-.062.221-.08.558 0 .877.062.243.214.559.504.736.25.153.84.188 1.066-.358 0 0-1.079.081-1.57-1.255Zm-5.702 1.613c.29-.177.44-.493.502-.736a1.81 1.81 0 0 0 0-.877c-.49 1.336-1.57 1.255-1.57 1.255.224.546.817.511 1.068.358Zm-4.606 4.65a2.082 2.082 0 0 1-.956.366c-1.218 1.103-1.077 1.554-1.077 1.554.613.091 1.165-.215 1.582-.536.272-.216.463-.513.526-.784.058-.27-.022-.46-.075-.6Zm-5.317-1.078s.424.353 1.197.2c.656-.133 1.225-.406 1.553-.87.1-.147.17-.376.385-.608a3.809 3.809 0 0 0-1.459.019c-.662.121-1.337.273-1.676 1.259Zm2.422-4.38c.018-.01.231-.14.596-.168-.306-.224-1.042-.825-1.558-1.113-.57-.311-1.51-.723-1.988-.783 0 0 .45 1.15.97 1.617.545.48.924.66 1.854.526l.126-.08Zm1.229 18.522c-.091.132-.027.275.229.395.254.117.735.214.833.087.092-.133-.039-.35-.579-.488-.083-.02-.414-.1-.483.006ZM14.232 24.58s.65.533 1.393.55c.747.024 1.437-.188 1.737-.404a1.671 1.671 0 0 1-.43-.564l-.053-.122c-.575-.23-1.172-.347-1.76-.134-.585.215-.74.46-.886.674Zm.606-2.03s.14.724 1.096.973c.902.23 1.234.17 1.6.05.1-.037.21-.072.335-.097a1.97 1.97 0 0 1-.623-1.05c-.267.06-.892.06-1.167-.04-.278-.105-.818-.108-1.24.163Zm14.124 18.978c.154.231.458.681.761 1.127l.34-.465-.897-1.325-.254-.375-.872 1.537.32.56c.258-.448.488-.852.602-1.06Zm9.863-1.79c-.208-.23-.468-.383-.705-.43-.677-.134-.913.304-1.304.44-.388.135-.64-.136-1.01-1.01-.371-.876-1.022-2.052-1.412-2.49-.128-.144-.538-.143-.604-.144-.064 0-.126.022-.131.094-.003.07-.003.463-.003.463-.134-.09-.437-.281-.588-.298-.156-.022-.497.365-.338.394 1.698.325 2.51 2.15 2.841 2.838.172.353.269.735.358 1.101.49-.052.843-.129 1.184-.36.337-.233.942-.362 1.264-.362.315 0 .388-.13.448-.237ZM26.746 14.388c0 .133.526.245 1.173.245.649 0 1.174-.112 1.174-.245 0-.135-.525-.245-1.174-.245-.647 0-1.173.11-1.173.245Zm2.299 24.46c-.31-.277-1.013-1.253-1.124-1.561h-.006c-.108.308-.814 1.284-1.126 1.56-.308.28-1.061 1.017-1.462 1.382 0 0 1.145-.277 1.788-.848 0 0 .46.26.795.26h.016c.334 0 .793-.26.793-.26.645.571 1.792.848 1.792.848-.403-.365-1.155-1.102-1.466-1.381Zm-1.12 1.022h-.014c-.255 0-.494-.097-.628-.156.134.28.388.714.632.891h.004c.244-.177.499-.61.635-.891-.136.059-.376.156-.629.156Zm-7.659-.277c.332-.687 1.145-2.513 2.84-2.838.16-.03-.184-.416-.334-.394-.153.017-.456.208-.588.298 0 0 0-.393-.005-.463-.004-.072-.068-.094-.134-.094-.065.001-.475 0-.606.144-.385.438-1.038 1.614-1.407 2.49-.37.874-.621 1.145-1.012 1.01-.39-.136-.624-.574-1.302-.44-.236.047-.498.2-.703.43.057.105.13.236.449.236.316 0 .922.129 1.26.362.34.231.697.308 1.183.36.09-.366.19-.748.36-1.101Zm3.253-23.752c.419 0 .755-.058.755-.131 0-.077-.336-.134-.755-.134-.417 0-.754.057-.754.134 0 .073.337.131.754.131Zm1.024.616v.048s-.965.005-1.003.473c-.156-.1-.247-.262-.283-.477 0 0 .696.03 1.285-.044Zm-.755 1.135c-.017-.126-.013-.346-.013-.346.35.32 1.07.546 1.07.546a1.304 1.304 0 0 0-.076-.352c.307.178.48.159.48.159-.033-.222-.188-.484-.188-.484.213.262.487.278.487.278.039-.131-.042-.458-.042-.458.105.132.305.473.928.605.624.131.905-.21.905-.21-.61.04-1.18-.537-1.18-.537.318-.119.425-.345.425-.345-.182-.157-.37-.157-.37-.157.356-.157.428-.432.428-.432-.443.213-1.82.227-2.564.264-.747.035-1.493-.236-1.493-.236.085 1.595 1.203 1.705 1.203 1.705Zm-6.625 9.998a2.422 2.422 0 0 0 1.641-.884c.015-.071.048-.205.08-.295-.285.072-.66.1-1.116-.006l-.124-.03-.038-.116c-.554.441-1.21.514-1.437.915 0 0 .276.496.994.416Zm6.711-13.306c0-.17-.211-.221-.32-.221h-.061c-.108 0-.323.05-.323.222 0 .173.277.59.35.774h.006c.076-.184.348-.601.348-.774Zm-.926 13.918-.16-.026c-.016-.005-.203-.038-.436-.152.214.271.418.469.58 1.257.238 1.163.452 1.194.452 1.194.161-.42.497-1.18.898-1.924.4-.743.07-1.358.07-1.358-.23-.114-.329-.183-.456-.31l-.04-.048c-.004.01-.012.015-.016.024-.078.093-.275.276-.646.268a1.547 1.547 0 0 1-.173.936l-.073.14Zm-5.57 3.465c.62-1.075 1.001-1.752 1.26-1.992-.166.02-.334.02-.496-.006l-.134-.02c-.383.677-1.138 1.788-1.818 2.176 0 0-.174-.9 1.826-2.724.027-.074.067-.16.124-.254-.183.066-.392.101-.625.097l-.026.003c-.767.749-2.384 2.432-2.233 4.256 0 0 1.504-.459 2.121-1.537Zm1.671-3.842c-.012-.02-.207-.273-.259-.672-.332.117-.565.18-1.05.5-.718.468-.424 1.06-.424 1.06 1.075.142 1.591-.722 1.733-.888Zm8.275 1.03c.08-.253.425-.721.433-1.485.001-.289-.525-.758-.672-1.13-.49.427-.557 1.286-.5 1.573.111.557.74 1.042.74 1.042Zm-10.562 6.226c.577.513 1.166.796 1.477.464.331-.355-.027-.882-.602-1.396-.571-.514-1.137-.824-1.47-.467-.338.356.023.884.595 1.4Zm2.624-2.452c.425-.682.532-2.05.623-3.381a2.601 2.601 0 0 1-.012-.246c-.032.032-.069.06-.1.088a4.47 4.47 0 0 1-.265.187s-.19 2.21-.818 2.947c-.2-.822.285-1.887.539-2.783a3.128 3.128 0 0 1-.271.12c-.728 1.165-1.593 2.836-.877 4.084 0 0 .766-.347 1.18-1.016Zm4.459 2.18s.492.124.805-.015c0 0 .113-.46.464-.666.078-.044.323-.116.55-.228-.086-.067-.163-.11-.266-.229 0 0-.398.144-.727.361-.33.216-.652.586-.826.776Zm2.468-14.067c.142-.472-.162-.928-.275-1.184-.256.202-.465.418-.5.978-.032.56.12 1.288.12 1.288.195-.404.514-.607.655-1.081Zm1.609-1.837h-.007c-.12.053-.612.308-.648.67-.035.363.624 1.032.644 1.31h.014c.021-.278.679-.947.645-1.31-.033-.362-.526-.617-.648-.67Zm-2.296-1.36c.132.463.36.9.584 1.24.202.314.33.818.312.99 0 0 .301-.652.149-1.113-.122-.356-.447-.892-1.045-1.117Zm5.31 10.626c-.137.296-.467.587-.541.845-.09.304-.117.496.032.85.136.309.294.491.35.68 0 0 .43-.547.5-.775.076-.225.095-.599.01-.835-.09-.239-.246-.547-.35-.765Zm-2.556-7.39c-.08.335-.005.559.15.764.154.202.416.423.662.85 0 0 .28-.364.315-.554.034-.191-.021-.645-.083-.833-.06-.194-.303-.807-.504-1.432 0 0-.458.864-.54 1.204Zm3.59 5.777a4.188 4.188 0 0 1-.39-.373s-.362.643-.421.831c0 0 .178.047.376-.095.197-.14.24-.178.436-.363Zm-1.138-2.257c-.15.288-.416.712-.416.712.019.173.006.47.062.831.058.36.54.974.54.974.119-.323.402-.765.461-1.199.034-.292-.03-.73-.03-.73-.195-.09-.442-.376-.617-.588Zm-1.103-2.309a1.435 1.435 0 0 0-.245.644c-.017.258.025.467.17.845.184.479.465 1.013.595 1.254 0 0 .25-.35.39-.664 0 0-.39-.525-.559-.896-.194-.436-.272-.838-.35-1.183Zm-.558-3.33c-.155.46.15 1.113.15 1.113-.024-.172.104-.676.307-.99.224-.34.45-.777.586-1.24-.6.225-.925.76-1.043 1.117Zm1.13 1.874c-.036-.56-.243-.776-.501-.978-.11.256-.416.712-.276 1.184.144.475.462.678.655 1.082 0 0 .155-.728.121-1.288Zm-3.887.472c-.062.188-.114.642-.082.833.033.19.316.554.316.554.243-.427.507-.648.658-.85.157-.205.231-.429.151-.765-.082-.34-.539-1.204-.539-1.204-.203.625-.445 1.238-.504 1.432Zm1.505 15.798c.05.094.117.182.204.262.476.445.78.403 1.044.309 0 0-.785-.258-.743-.941.046-.679.442-1.088.51-1.441.078-.39.052-.762-.257-1.211-.253.837-.525 1.45-.742 1.868-.007.011-.01.024-.016.037-.005-.013-.009-.026-.017-.037a10.799 10.799 0 0 1-.74-1.868c-.308.449-.336.821-.259 1.21.07.354.465.763.51 1.442.043.683-.741.941-.741.941.263.094.565.136 1.044-.309a.974.974 0 0 0 .203-.262Zm-.797.983.15-.244c-.229.1-.52.03-.52.03a.733.733 0 0 0-.07.11c-.78 1.124-1.643 1.831-2.522 2.294l.25.35c.952-.506 1.877-1.292 2.712-2.54Zm4.87-2.98c-.177-.191-.497-.561-.824-.777-.329-.217-.73-.36-.73-.36-.104.118-.177.161-.264.227.227.113.472.185.547.23.352.205.465.665.465.665.313.14.807.014.807.014Zm-1.54-.56c-.515-.153-1.31-.76-1.632-1.332 0 .137.103.907.329 1.292.315.537.776.934 1.181.934.376 0 .457-.22.64-.306 0 0-.095-.467-.517-.589Zm-6.625 2.497c.11.055.624.26.957-.412 0 0-.569.183-.723-.083-.153-.269.098-.657.252-.77.201-.148.567-.246.785-.21 0 0-.176-.164-.387-.271a.711.711 0 0 1-.33.072s-.734.497-.82.995c-.071.424.156.627.266.68Zm1.372-12.675c.138.314.389.664.389.664.13-.241.415-.775.596-1.254.145-.378.189-.587.169-.845a1.42 1.42 0 0 0-.245-.644c-.077.345-.157.747-.35 1.183-.168.37-.559.896-.559.896Zm-1.331 2.487c.194.185.24.223.436.363.197.142.378.095.378.095-.062-.188-.42-.831-.42-.831-.09.103-.307.298-.394.373Zm.522-1.669s-.066.438-.03.73c.058.434.34.876.463 1.198 0 0 .48-.613.536-.973.054-.36.047-.658.065-.83 0 0-.268-.425-.415-.713-.176.212-.426.498-.62.588Zm-.97 9.289s.524-.113.927-.245c.44-.143.745-.334.91-.427-.079-.117-.235-.33-.201-.666 0 0-.694.43-.896.591-.21.168-.644.604-.74.747Zm1.642-3.633c.053-.188.214-.37.348-.679.15-.354.121-.546.034-.85-.075-.258-.404-.549-.54-.845-.107.218-.265.526-.351.765-.09.236-.065.61.006.835.072.228.503.774.503.774Zm-1.59 5.11c.068-.121.352-.534.616-.59 0 0-.224-.02-.353-.06 0 0-.27.068-.462.145-.192.076-.431.193-.714.373.06.019.386.115.704.311 0 0 .14-.052.21-.18Zm5.215-13.318c-.13.276-.158.573-.116.749.043.174.272.43.296.72.036.451-.324 1.001-.324 1.001.333-.163.712-.544.878-.785.165-.24.043-.589-.03-.77-.07-.182-.604-.808-.704-.915Zm-3.061 3.066c-.12.554.477.884.756 1.38.073-.2.305-.741.571-.928 0 0 .341-.983-.757-1.589 0 0-.451.585-.57 1.137Zm.822-2.15c-.072.18-.195.528-.03.769.166.24.547.622.876.785 0 0-.36-.55-.32-1.002.02-.288.25-.545.293-.72.044-.175.016-.472-.115-.748-.1.107-.633.733-.704.915Zm-1.641 3.975s.043.285.26.697c.215.41.514.697.674.843 0 0 .36-.61.466-.879.119-.308.106-.61.056-.724-.124-.267-.544-.651-.732-.986-.042.163-.624.952-.724 1.05Zm4.445.585c.06-.287-.008-1.146-.497-1.573-.148.372-.677.841-.673 1.13.01.764.35 1.232.432 1.485 0 0 .628-.485.738-1.042Zm.389-3.547c-1.099.606-.757 1.589-.757 1.589.268.187.498.728.57.927.28-.495.88-.825.76-1.379-.122-.552-.573-1.137-.573-1.137Zm1.128 3.66a2.58 2.58 0 0 0 .261-.698c-.1-.097-.68-.886-.724-1.049-.187.335-.609.72-.728.986-.054.113-.069.416.053.724.107.27.465.879.465.879.161-.146.46-.434.673-.843Zm-5.698 3.486c.067.269.36.857.36.857.124-.205.49-.684.582-1.026.092-.339-.237-.912-.355-1.08-.591.54-.651.981-.587 1.249Zm7.347 2.766c-.097-.143-.53-.58-.739-.747-.207-.16-.9-.59-.9-.59.036.335-.12.548-.198.665.165.093.469.284.91.427.401.132.927.245.927.245Zm-6.539-5.204a1.2 1.2 0 0 0-.072.868c.116.35.647.839.647.839.155-.264.386-.613.459-.788.073-.18.115-.392.067-.65-.06-.33-.448-.746-.576-.998-.121.242-.399.495-.525.73Zm3.66 2.615c.018-.464-.723-1.339-.723-1.339-.392.369-.489.602-.53.972-.048.367.08.645.247.967.147.29.537.718.537.718.052-.354.448-.74.47-1.318Zm-.155-.908s.53-.489.646-.84c.09-.262.055-.636-.073-.867-.126-.234-.402-.487-.524-.73-.126.253-.513.67-.575 1a1.16 1.16 0 0 0 .065.65c.073.174.308.523.461.787Zm.662 3.041s.325-.224.454-.515c.122-.275.053-.471-.074-.61-.125-.143-.42-.473-.547-.687-.082.254-.325.726-.358.869-.057.27.02.596.525.943Zm-1.509-.658c.014-.439-.384-1.122-.613-1.384h-.012c-.225.262-.625.945-.611 1.384.027.875.59 1.7.619 1.967.027-.266.59-1.092.617-1.967Zm-2.746.658c.503-.347.583-.673.524-.943-.032-.143-.276-.615-.357-.87-.125.215-.421.545-.547.687-.126.14-.195.336-.075.611.13.291.455.515.455.515Zm4.389-3.558c-.12.168-.447.74-.355 1.079.097.342.46.821.582 1.026 0 0 .292-.588.359-.857.066-.268.004-.71-.586-1.248Zm2.368 4.83c.482.178.92.469.92.469.272-.084.79-.225.79-.225-.335-.359-.591-.534-.942-.637-.354-.101-1.189-.232-1.562-.364.33.319.484.637.794.756Zm-4.99-3.772c-.047-.37-.145-.603-.533-.972 0 0-.742.875-.725 1.339.022.577.415.964.47 1.318 0 0 .387-.428.536-.718.166-.322.292-.6.252-.967Zm.361-4.212c.073-.327.773-.957.707-1.302-.096-.514-.434-.405-.702-.622h-.005c-.27.217-.613.108-.71.622-.062.345.634.975.706 1.302h.004Zm-.006 3.838h.01c.056-.214.392-.473.53-.849.083-.22.08-.48-.01-.657-.105-.207-.482-.715-.524-.86-.047.145-.419.653-.527.86-.09.177-.092.436-.01.657.14.376.475.635.531.849Z" />
    <path fill="#CC003D" d="M60.494 0h55.84v55.84h-55.84V0Z" />
    <mask id="a" width="40" height="27" x="68" y="15" maskUnits="userSpaceOnUse">
        <path fill="#fff" d="M107.399 15.123H68.637v25.964h38.762V15.123Z" />
    </mask>
    <g mask="url(#a)">
        <path fill="#fff"
            d="M100.976 32.957c.164-.686.38-2.692.38-2.692H99.43c-.012.205-.054.89-.114 1.589-.09 1.035-.389 1.988-1.43 1.988h-.802c-.002-.087 0-3.577 0-3.577h-1.96v10.823h1.96v-5.495h1.181l1.924 5.491h2.103l-2.355-6.341c.489-.37.869-1.079 1.039-1.786ZM78.77 20.83c.016-2.927.728-3.89 1.479-3.907.75.017 1.462.98 1.478 3.908v.001c-.016 2.86-.728 3.837-1.478 3.852-.75-.015-1.463-.992-1.48-3.852v-.002Zm1.435 5.628.027.001.017-.001.017.001.027-.001c1.296-.025 2.537-.808 3.075-3.025.207-.753.312-1.688.313-2.653l-.004-.35c-.034-1.546-.295-2.655-.7-3.444-.639-1.345-1.655-1.849-2.705-1.861l-.006-.002h-.034l-.007.002c-1.05.012-2.066.516-2.704 1.861-.405.79-.666 1.898-.7 3.445l-.005.35c.001.964.107 1.899.313 2.652.538 2.217 1.78 3 3.076 3.025Zm-8.943 12.955c-.19 0-.669-.044-.669-.044v-3.81s.154-.036.322-.036c.993 0 2.166-.06 2.166 1.944 0 1.835-1.29 1.946-1.82 1.946Zm.237-5.607c-.337 0-.637.008-.906.022v-1.763h3.512v-1.8h-5.469v10.82h2.97c2.962 0 3.42-2.678 3.42-3.669 0-1.171-.455-3.61-3.527-3.61Zm19.091-.083h-2.687v-3.458H85.95v10.823h1.953v-5.566h2.687v5.566h1.954V30.265H90.59v3.458Zm6.48-7.501v-9.02h1.626v-1.799h-5.233v1.8h1.626v9.019h1.981Zm-7.734-5.224v5.224h1.959V15.403h-1.96v3.768h-1.064c-.44 0-.767-.1-.975-.302-.148-.14-.22-.331-.22-.578v-2.888h-1.96v3.09c0 .711.276 1.313.823 1.792.54.474 1.2.713 1.966.713h1.43Zm-18.743-3.795h2.425v9.019h1.96V15.403h-6.342v10.819h1.957v-9.02Zm8.515 16.83c.004-.22.045-1.76.048-1.968l.346-.023c1.427 0 1.688.279 1.82 1.99h-2.214Zm.859-3.768H77.31l-.361 10.822h1.936s.178-5.018.189-5.257l2.447.002c.022.218.387 5.255.387 5.255h2s-.688-7.433-.744-7.91c-.223-1.914-1.108-2.912-3.197-2.912ZM102.6 19.171c.005-.22.045-1.76.048-1.968h.369c1.425 0 1.664.255 1.797 1.968H102.6Zm4.056-.855c-.224-1.915-1.108-2.913-3.197-2.913h-2.657l-.362 10.821h1.937s.178-5.018.189-5.255h2.446c.023.219.388 5.255.388 5.255h1.999s-.688-7.432-.743-7.908Z" />
    </g>
</svg>